<svg width="152" height="21" viewBox="0 0 152 21" fill="none" xmlns="http://www.w3.org/2000/svg">
<path d="M147.788 15.3212C146.912 15.3212 146.127 15.1666 145.431 14.8575C144.736 14.5355 144.182 14.104 143.77 13.563C143.37 13.0221 143.151 12.4231 143.113 11.7662H145.837C145.888 12.1784 146.088 12.5197 146.436 12.7902C146.796 13.0607 147.241 13.1959 147.769 13.1959C148.284 13.1959 148.683 13.0929 148.967 12.8868C149.263 12.6807 149.411 12.4167 149.411 12.0947C149.411 11.7469 149.231 11.4893 148.87 11.3219C148.522 11.1416 147.962 10.9484 147.189 10.7423C146.391 10.5491 145.734 10.3494 145.219 10.1433C144.716 9.93726 144.278 9.6217 143.905 9.19665C143.544 8.77161 143.364 8.19844 143.364 7.47715C143.364 6.88466 143.531 6.3437 143.866 5.85425C144.214 5.3648 144.703 4.9784 145.335 4.69503C145.979 4.41167 146.732 4.26999 147.595 4.26999C148.87 4.26999 149.888 4.59199 150.648 5.236C151.408 5.86713 151.826 6.72366 151.903 7.80559H149.315C149.276 7.38055 149.096 7.04566 148.774 6.80094C148.464 6.54334 148.046 6.41454 147.518 6.41454C147.028 6.41454 146.648 6.5047 146.378 6.68502C146.12 6.86534 145.991 7.11651 145.991 7.43851C145.991 7.79915 146.172 8.07608 146.532 8.26928C146.893 8.4496 147.453 8.63637 148.213 8.82957C148.986 9.02277 149.624 9.22241 150.126 9.4285C150.628 9.63458 151.06 9.95658 151.42 10.3945C151.794 10.8196 151.987 11.3863 152 12.0947C152 12.7129 151.826 13.2668 151.478 13.7562C151.144 14.2457 150.654 14.6321 150.01 14.9154C149.379 15.1859 148.638 15.3212 147.788 15.3212Z" fill="#363434"/>
<path d="M141.718 9.56374C141.718 9.95014 141.692 10.2979 141.641 10.607H133.816C133.88 11.3798 134.151 11.9852 134.628 12.4231C135.104 12.8611 135.69 13.08 136.386 13.08C137.39 13.08 138.105 12.6485 138.53 11.7856H141.448C141.138 12.816 140.546 13.6661 139.67 14.3358C138.794 14.9927 137.719 15.3212 136.444 15.3212C135.413 15.3212 134.486 15.0958 133.662 14.645C132.85 14.1813 132.212 13.5308 131.749 12.6936C131.298 11.8564 131.073 10.8904 131.073 9.79558C131.073 8.68789 131.298 7.71543 131.749 6.87822C132.2 6.04101 132.831 5.397 133.642 4.9462C134.454 4.49539 135.387 4.26999 136.444 4.26999C137.461 4.26999 138.369 4.48895 139.168 4.92688C139.979 5.3648 140.604 5.98949 141.042 6.80094C141.493 7.59951 141.718 8.52044 141.718 9.56374ZM138.917 8.79093C138.904 8.0954 138.653 7.54155 138.163 7.12939C137.674 6.70434 137.075 6.49182 136.366 6.49182C135.697 6.49182 135.13 6.6979 134.666 7.11007C134.215 7.50935 133.938 8.06964 133.835 8.79093H138.917Z" fill="#363434"/>
<path d="M125.336 15.3212C124.46 15.3212 123.674 15.1666 122.979 14.8575C122.283 14.5355 121.729 14.104 121.317 13.563C120.918 13.0221 120.699 12.4231 120.66 11.7662H123.385C123.436 12.1784 123.636 12.5197 123.983 12.7902C124.344 13.0607 124.788 13.1959 125.317 13.1959C125.832 13.1959 126.231 13.0929 126.514 12.8868C126.811 12.6807 126.959 12.4167 126.959 12.0947C126.959 11.7469 126.778 11.4893 126.418 11.3219C126.07 11.1416 125.51 10.9484 124.737 10.7423C123.938 10.5491 123.281 10.3494 122.766 10.1433C122.264 9.93726 121.826 9.6217 121.452 9.19665C121.092 8.77161 120.912 8.19844 120.912 7.47715C120.912 6.88466 121.079 6.3437 121.414 5.85425C121.762 5.3648 122.251 4.9784 122.882 4.69503C123.526 4.41167 124.28 4.26999 125.143 4.26999C126.418 4.26999 127.435 4.59199 128.195 5.236C128.955 5.86713 129.374 6.72366 129.451 7.80559H126.862C126.824 7.38055 126.643 7.04566 126.321 6.80094C126.012 6.54334 125.593 6.41454 125.065 6.41454C124.576 6.41454 124.196 6.5047 123.925 6.68502C123.668 6.86534 123.539 7.11651 123.539 7.43851C123.539 7.79915 123.719 8.07608 124.08 8.26928C124.441 8.4496 125.001 8.63637 125.761 8.82957C126.534 9.02277 127.171 9.22241 127.674 9.4285C128.176 9.63458 128.607 9.95658 128.968 10.3945C129.342 10.8196 129.535 11.3863 129.548 12.0947C129.548 12.7129 129.374 13.2668 129.026 13.7562C128.691 14.2457 128.202 14.6321 127.558 14.9154C126.927 15.1859 126.186 15.3212 125.336 15.3212Z" fill="#363434"/>
<path d="M107.451 9.75694C107.451 8.67501 107.663 7.71543 108.088 6.87822C108.526 6.04101 109.112 5.397 109.846 4.9462C110.593 4.49539 111.424 4.26999 112.339 4.26999C113.137 4.26999 113.833 4.43099 114.425 4.75299C115.031 5.075 115.514 5.48072 115.874 5.97017V4.44387H118.598V15.1473H115.874V13.5824C115.526 14.0847 115.043 14.5033 114.425 14.8382C113.82 15.1602 113.118 15.3212 112.319 15.3212C111.418 15.3212 110.593 15.0893 109.846 14.6256C109.112 14.162 108.526 13.5115 108.088 12.6743C107.663 11.8242 107.451 10.8518 107.451 9.75694ZM115.874 9.79558C115.874 9.13869 115.745 8.5784 115.488 8.11472C115.23 7.63815 114.882 7.27751 114.444 7.03278C114.007 6.77518 113.536 6.64638 113.034 6.64638C112.532 6.64638 112.068 6.76874 111.643 7.01346C111.218 7.25819 110.87 7.61883 110.6 8.0954C110.342 8.55908 110.213 9.11293 110.213 9.75694C110.213 10.4009 110.342 10.9677 110.6 11.4571C110.87 11.9337 111.218 12.3008 111.643 12.5584C112.081 12.816 112.545 12.9448 113.034 12.9448C113.536 12.9448 114.007 12.8224 114.444 12.5777C114.882 12.3201 115.23 11.9594 115.488 11.4958C115.745 11.0192 115.874 10.4525 115.874 9.79558Z" fill="#363434"/>
<path d="M92.6594 8.38504C92.6594 7.05838 92.9556 5.8734 93.5481 4.83011C94.1535 3.77394 94.9714 2.95605 96.0018 2.37644C97.0451 1.78395 98.2107 1.48771 99.4987 1.48771C101.006 1.48771 102.326 1.87411 103.459 2.64692C104.593 3.41973 105.385 4.48879 105.836 5.85408H102.725C102.416 5.21008 101.978 4.72707 101.411 4.40506C100.858 4.08306 100.214 3.92206 99.4794 3.92206C98.6937 3.92206 97.9918 4.10882 97.3735 4.48235C96.7681 4.84299 96.2916 5.3582 95.9438 6.02797C95.6089 6.69774 95.4415 7.48343 95.4415 8.38504C95.4415 9.27377 95.6089 10.0595 95.9438 10.7421C96.2916 11.4119 96.7681 11.9335 97.3735 12.3071C97.9918 12.6677 98.6937 12.848 99.4794 12.848C100.214 12.848 100.858 12.687 101.411 12.365C101.978 12.0301 102.416 11.5407 102.725 10.8967H105.836C105.385 12.2748 104.593 13.3503 103.459 14.1232C102.339 14.8831 101.019 15.263 99.4987 15.263C98.2107 15.263 97.0451 14.9732 96.0018 14.3936C94.9714 13.8011 94.1535 12.9833 93.5481 11.94C92.9556 10.8967 92.6594 9.7117 92.6594 8.38504Z" fill="#363434"/>
<path d="M79.8111 4.26999C80.6097 4.26999 81.3116 4.43099 81.917 4.75299C82.5224 5.06212 82.9989 5.46784 83.3467 5.97017V4.44387H86.0709V15.2246C86.0709 16.2163 85.8712 17.0986 85.4719 17.8714C85.0726 18.6571 84.4737 19.2754 83.6751 19.7262C82.8766 20.1899 81.9106 20.4217 80.7771 20.4217C79.2572 20.4217 78.0079 20.0675 77.029 19.3591C76.063 18.6507 75.5156 17.6847 75.3868 16.4611H78.0723C78.214 16.9505 78.5166 17.3369 78.9803 17.6203C79.4569 17.9165 80.0301 18.0647 80.6998 18.0647C81.4855 18.0647 82.1231 17.8264 82.6125 17.3498C83.102 16.8861 83.3467 16.1777 83.3467 15.2246V13.563C82.9989 14.0654 82.5159 14.484 81.8977 14.8188C81.2923 15.1537 80.5968 15.3212 79.8111 15.3212C78.9095 15.3212 78.0852 15.0893 77.3381 14.6256C76.5911 14.162 75.9986 13.5115 75.5606 12.6743C75.1356 11.8242 74.9231 10.8518 74.9231 9.75694C74.9231 8.67501 75.1356 7.71543 75.5606 6.87822C75.9986 6.04101 76.5846 5.397 77.3188 4.9462C78.0658 4.49539 78.8966 4.26999 79.8111 4.26999ZM83.3467 9.79558C83.3467 9.13869 83.2179 8.5784 82.9603 8.11472C82.7027 7.63815 82.3549 7.27751 81.917 7.03278C81.4791 6.77518 81.009 6.64638 80.5066 6.64638C80.0043 6.64638 79.5406 6.76874 79.1156 7.01346C78.6905 7.25819 78.3428 7.61883 78.0723 8.0954C77.8147 8.55908 77.6859 9.11293 77.6859 9.75694C77.6859 10.4009 77.8147 10.9677 78.0723 11.4571C78.3428 11.9337 78.6905 12.3008 79.1156 12.5584C79.5535 12.816 80.0172 12.9448 80.5066 12.9448C81.009 12.9448 81.4791 12.8224 81.917 12.5777C82.3549 12.3201 82.7027 11.9594 82.9603 11.4958C83.2179 11.0192 83.3467 10.4525 83.3467 9.79558Z" fill="#363434"/>
<path d="M68.7766 4.28911C70.0518 4.28911 71.0822 4.69483 71.8679 5.50628C72.6536 6.30485 73.0464 7.42543 73.0464 8.86801V15.1471H70.3416V9.23509C70.3416 8.385 70.1291 7.73455 69.704 7.28375C69.279 6.82006 68.6994 6.58822 67.9652 6.58822C67.2181 6.58822 66.6256 6.82006 66.1877 7.28375C65.7627 7.73455 65.5502 8.385 65.5502 9.23509V15.1471H62.8453V4.44367H65.5502V5.77677C65.9108 5.31308 66.368 4.95243 66.9219 4.69483C67.4886 4.42435 68.1069 4.28911 68.7766 4.28911Z" fill="#363434"/>
<path d="M58.8398 3.16852C58.3633 3.16852 57.964 3.0204 57.642 2.72416C57.3329 2.41503 57.1783 2.03507 57.1783 1.58426C57.1783 1.13346 57.3329 0.75993 57.642 0.463686C57.964 0.154562 58.3633 0 58.8398 0C59.3164 0 59.7093 0.154562 60.0184 0.463686C60.3404 0.75993 60.5014 1.13346 60.5014 1.58426C60.5014 2.03507 60.3404 2.41503 60.0184 2.72416C59.7093 3.0204 59.3164 3.16852 58.8398 3.16852ZM60.1729 4.44366V15.1471H57.4681V4.44366H60.1729Z" fill="#363434"/>
<path d="M43.6785 9.75662C43.6785 8.67468 43.8911 7.71511 44.3161 6.8779C44.754 6.04069 45.3465 5.39668 46.0936 4.94587C46.8406 4.49507 47.6714 4.26966 48.5859 4.26966C49.2814 4.26966 49.9447 4.42423 50.5759 4.73335C51.207 5.02959 51.7093 5.42888 52.0828 5.93121V0.849978H54.8263V15.147H52.0828V13.5627C51.748 14.0908 51.2778 14.5158 50.6725 14.8378C50.0671 15.1598 49.3651 15.3209 48.5666 15.3209C47.6649 15.3209 46.8406 15.089 46.0936 14.6253C45.3465 14.1616 44.754 13.5112 44.3161 12.674C43.8911 11.8239 43.6785 10.8514 43.6785 9.75662ZM52.1022 9.79526C52.1022 9.13837 51.9734 8.57808 51.7158 8.11439C51.4582 7.63783 51.1104 7.27718 50.6725 7.03246C50.2345 6.77486 49.7644 6.64605 49.2621 6.64605C48.7598 6.64605 48.2961 6.76842 47.871 7.01314C47.446 7.25786 47.0982 7.61851 46.8277 8.09507C46.5701 8.55876 46.4413 9.11261 46.4413 9.75662C46.4413 10.4006 46.5701 10.9674 46.8277 11.4568C47.0982 11.9334 47.446 12.3004 47.871 12.5581C48.309 12.8157 48.7726 12.9445 49.2621 12.9445C49.7644 12.9445 50.2345 12.8221 50.6725 12.5774C51.1104 12.3198 51.4582 11.9591 51.7158 11.4954C51.9734 11.0189 52.1022 10.4521 52.1022 9.79526Z" fill="#363434"/>
<path d="M37.5322 4.28911C38.8074 4.28911 39.8378 4.69483 40.6235 5.50628C41.4092 6.30485 41.802 7.42543 41.802 8.86801V15.1471H39.0972V9.23509C39.0972 8.385 38.8846 7.73455 38.4596 7.28375C38.0345 6.82006 37.4549 6.58822 36.7208 6.58822C35.9737 6.58822 35.3812 6.82006 34.9433 7.28375C34.5183 7.73455 34.3057 8.385 34.3057 9.23509V15.1471H31.6009V4.44367H34.3057V5.77677C34.6664 5.31308 35.1236 4.95243 35.6775 4.69483C36.2442 4.42435 36.8625 4.28911 37.5322 4.28911Z" fill="#363434"/>
<path d="M29.6266 9.56374C29.6266 9.95014 29.6008 10.2979 29.5493 10.607H21.7246C21.789 11.3798 22.0595 11.9852 22.5361 12.4231C23.0126 12.8611 23.5987 13.08 24.2942 13.08C25.2989 13.08 26.0137 12.6485 26.4387 11.7856H29.3561C29.047 12.816 28.4545 13.6661 27.5786 14.3358C26.7028 14.9927 25.6273 15.3212 24.3522 15.3212C23.3217 15.3212 22.3944 15.0958 21.57 14.645C20.7586 14.1813 20.121 13.5308 19.6573 12.6936C19.2065 11.8564 18.9811 10.8904 18.9811 9.79558C18.9811 8.68789 19.2065 7.71543 19.6573 6.87822C20.1081 6.04101 20.7393 5.397 21.5507 4.9462C22.3622 4.49539 23.296 4.26999 24.3522 4.26999C25.3697 4.26999 26.2777 4.48895 27.0763 4.92688C27.8878 5.3648 28.5125 5.98949 28.9504 6.80094C29.4012 7.59951 29.6266 8.52044 29.6266 9.56374ZM26.8252 8.79093C26.8123 8.0954 26.5611 7.54155 26.0717 7.12939C25.5822 6.70434 24.9833 6.49182 24.2749 6.49182C23.6051 6.49182 23.0384 6.6979 22.5747 7.11007C22.1239 7.50935 21.847 8.06964 21.7439 8.79093H26.8252Z" fill="#363434"/>
<path d="M14.5703 6.10521C14.9181 5.53848 15.3689 5.09412 15.9228 4.77211C16.4895 4.45011 17.1335 4.28911 17.8548 4.28911V7.12918H17.1399C16.2898 7.12918 15.6458 7.32883 15.2079 7.72811C14.7829 8.1274 14.5703 8.82293 14.5703 9.8147V15.1471H11.8655V4.44367H14.5703V6.10521Z" fill="#363434"/>
<path d="M9.89197 1.66172V3.84491H6.2984V15.1473H3.59357V3.84491H0V1.66172H9.89197Z" fill="#363434"/>
</svg>
