<svg width="43" height="43" viewBox="0 0 43 43" fill="none" xmlns="http://www.w3.org/2000/svg">
<g clip-path="url(#clip0_548_1404)">
<path d="M42.9999 21.4999C42.9999 9.62593 33.374 0 21.4999 0C9.62593 0 0 9.62593 0 21.4999C0 32.2311 7.86226 41.1259 18.1406 42.7387V27.7148H12.6816V21.4999H18.1406V16.7632C18.1406 11.3748 21.3505 8.39841 26.2615 8.39841C28.6137 8.39841 31.0741 8.81834 31.0741 8.81834V14.1093H28.3631C25.6923 14.1093 24.8593 15.7667 24.8593 17.467V21.4999H30.8222L29.869 27.7148H24.8593V42.7387C35.1376 41.1259 42.9999 32.2313 42.9999 21.4999Z" fill="#1877F2"/>
<path d="M29.869 27.7151L30.8222 21.5003H24.8593V17.4674C24.8593 15.7668 25.6923 14.1097 28.3631 14.1097H31.0742V8.81866C31.0742 8.81866 28.6138 8.39874 26.2614 8.39874C21.3505 8.39874 18.1406 11.3751 18.1406 16.7636V21.5003H12.6816V27.7151H18.1406V42.739C19.2519 42.9132 20.3751 43.0005 21.5 43.0002C22.6248 43.0005 23.748 42.9132 24.8593 42.739V27.7151H29.869Z" fill="white"/>
</g>
<defs>
<clipPath id="clip0_548_1404">
<rect width="42.8358" height="42.8358" fill="white" transform="scale(1.00383)"/>
</clipPath>
</defs>
</svg>
