<svg width="22" height="24" viewBox="0 0 22 24" fill="none" xmlns="http://www.w3.org/2000/svg">
<path fill-rule="evenodd" clip-rule="evenodd" d="M3.79457 8C3.79457 5.23857 5.7933 3 8.25886 3H15.1785C17.6441 3 19.6428 5.23858 19.6428 8V16C19.6428 18.7614 17.6441 21 15.1785 21H2.6785C2.35038 21 2.0487 20.7984 1.89282 20.475C1.73695 20.1517 1.75201 19.7586 1.93203 19.4513L3.35542 17.0221C3.64193 16.5331 3.79457 15.961 3.79457 15.3761V8ZM8.25886 5C6.77952 5 5.58029 6.34314 5.58029 8V15.3761C5.58029 16.3509 5.32588 17.3044 4.84836 18.1194L4.33239 19H15.1785C16.6578 19 17.8571 17.6569 17.8571 16V8C17.8571 6.34315 16.6578 5 15.1785 5H8.25886Z" fill="white"/>
</svg>
