<svg width="28" height="28" viewBox="0 0 28 28" fill="none" xmlns="http://www.w3.org/2000/svg">
<path d="M5.26313 6.66127C5.26313 5.09294 6.51788 3.82812 8.09628 3.82812C9.6646 3.82812 10.9294 5.09294 10.9294 6.66127C10.9194 8.23977 9.65454 9.49441 8.09628 9.49441C6.52795 9.49441 5.26313 8.22959 5.26313 6.66127ZM20.8906 18.8125H15.75V14.2188C15.75 11.9808 13.7943 10.1719 11.5938 10.1719H4.70313C2.28726 10.1719 0.217665 12.2653 0.218759 14.3281V22.75C0.215915 23.6833 0.875119 24.1707 1.53126 24.1719C2.18904 24.1731 2.84376 23.6857 2.84376 22.75V14.5469H3.71876V24.1719H12.25V14.5469H13.125L13.1339 20.0561C13.1281 21.0108 13.7182 21.4174 14.3281 21.4375H20.8906C22.6803 21.4375 22.6803 18.8125 20.8906 18.8125ZM27.5854 13.9012H27.6173H27.7813C27.7813 15.0128 26.8837 15.9103 25.7722 15.9103C24.6606 15.9103 23.763 15.0083 23.763 13.9012H23.9543H23.9863L25.3712 9.32269H22.7426V16.4478H25.3438V17.4683H25.0112H22.4372H19.8632H19.5306V16.4478H22.1318V9.3228H19.5032L20.8881 13.9013H20.9201H21.1114C21.1114 15.0129 20.2138 15.9105 19.1022 15.9105C17.9907 15.9105 17.0931 15.0084 17.0931 13.9013H17.2571H17.289L18.756 9.02212H22.1044V8.4117C22.1044 8.24316 22.2729 8.07909 22.437 8.07909C22.6055 8.07909 22.7696 8.24764 22.7696 8.4117V9.01764H26.118L27.5854 13.9012ZM19.0889 9.45941L17.7724 13.9012H20.4329L19.0889 9.45941ZM27.1025 13.9012L25.7858 9.45941L24.4419 13.9012H27.1025Z" fill="white" fill-opacity="0.6"/>
</svg>
