<svg width="24" height="24" viewBox="0 0 24 24" fill="none" xmlns="http://www.w3.org/2000/svg">
<path d="M18.7695 5.64766L15.8543 2.73204C15.3828 2.2634 14.7461 2 14.0859 2L7 2C5.61914 2 4.5 3.11914 4.5 4.5L4.50025 19.5C4.50025 20.8809 5.61939 22 7.00025 22H17C18.375 22 19.5 20.875 19.5 19.5V7.41407C19.5 6.75391 19.2383 6.11719 18.7695 5.64766ZM17 20.125H7.00078C6.65562 20.125 6.41094 19.8452 6.37578 19.5352L6.375 4.50508C6.37498 4.15989 6.6548 3.88008 7 3.88008H13.25V7C13.25 7.69024 13.8098 8.25 14.5 8.25H17.5898V19.5C17.625 19.8438 17.3438 20.125 17 20.125Z" fill="white" fill-opacity="0.6"/>
</svg>
