<svg width="24" height="24" viewBox="0 0 24 24" fill="none" xmlns="http://www.w3.org/2000/svg">
<path d="M0 19.1039C0 20.2879 0.416 21.2959 1.248 22.1279C2.08 22.9599 3.088 23.3759 4.272 23.3759H18.48C19.648 23.3759 20.648 22.9599 21.48 22.1279C22.312 21.2959 22.728 20.2879 22.728 19.1039V12.9599L19.896 15.3359V19.1039C19.896 19.5039 19.76 19.8399 19.488 20.1119C19.216 20.3839 18.88 20.5279 18.48 20.5439H4.272C3.872 20.5439 3.536 20.3999 3.264 20.1119C2.992 19.8239 2.856 19.4879 2.856 19.1039V4.89595C2.856 4.51195 2.992 4.17595 3.264 3.88795C3.536 3.59995 3.872 3.46395 4.272 3.47995H11.376V0.647949H4.272C3.088 0.647949 2.08 1.06395 1.248 1.89595C0.416 2.72795 0 3.72795 0 4.89595L0 19.1039ZM4.272 14.8559C4.272 16.2319 4.544 17.5519 5.088 18.8159C5.344 17.3439 5.904 16.0079 6.768 14.8079C7.632 13.6079 8.704 12.6399 9.984 11.9039C11.264 11.1679 12.672 10.7519 14.208 10.6559V14.8559L22.728 7.75195L14.208 0.647949V4.89595C12.864 4.89595 11.576 5.15995 10.344 5.68795C9.112 6.21595 8.056 6.92795 7.176 7.82395C6.296 8.71995 5.584 9.77595 5.04 10.9919C4.496 12.2079 4.24 13.4959 4.272 14.8559Z" fill="black"/>
</svg>
