<svg width="22" height="24" viewBox="0 0 22 24" fill="none" xmlns="http://www.w3.org/2000/svg">
<path d="M10.5006 12.0007C13.8149 12.0007 16.501 9.31414 16.501 6.00035C16.501 2.68656 13.8149 0 10.5006 0C7.18636 0 4.50026 2.68656 4.50026 6.00035C4.50026 9.31414 7.18636 12.0007 10.5006 12.0007ZM12.8773 14.2508H8.12391C3.63818 14.2508 0 17.8885 0 22.3747C0 23.272 0.727543 24 1.62478 24H19.3774C20.2746 24.0014 21.0012 23.2748 21.0012 22.3747C21.0012 17.8885 17.3635 14.2508 12.8773 14.2508Z" fill="#1D1D1D"/>
<path d="M19.379 23H19.3774H1.62478C1.2802 23 1 22.7201 1 22.3747C1 18.4409 4.19043 15.2508 8.12391 15.2508H12.8773C16.8112 15.2508 20.0012 18.4408 20.0012 22.3747C20.0012 22.7239 19.7213 23.0005 19.379 23ZM15.501 6.00035C15.501 8.76191 13.2625 11.0007 10.5006 11.0007C7.73869 11.0007 5.50026 8.76191 5.50026 6.00035C5.50026 3.2388 7.73869 1 10.5006 1C13.2625 1 15.501 3.2388 15.501 6.00035Z" stroke="white" stroke-opacity="0.6" stroke-width="2"/>
</svg>
